<svg xmlns="http://www.w3.org/2000/svg" width="17.999" height="17" viewBox="0 0 17.999 17">
  <path id="_0142-star" data-name="0142-star" d="M15.5,19a.5.5,0,0,1-.239-.061L10,16.07,4.739,18.939a.5.5,0,0,1-.732-.522l.958-5.746L1.147,8.853a.5.5,0,0,1,.271-.847l5.749-.958L9.553,2.276a.5.5,0,0,1,.894,0l2.386,4.772,5.749.958a.5.5,0,0,1,.271.847l-3.818,3.818.958,5.746A.5.5,0,0,1,15.5,19ZM10,15a.494.494,0,0,1,.239.061l4.6,2.508-.831-4.987a.5.5,0,0,1,.14-.436L17.46,8.833l-5.042-.84a.5.5,0,0,1-.365-.27L10,3.617,7.947,7.723a.5.5,0,0,1-.365.27l-5.042.84,3.313,3.313a.5.5,0,0,1,.14.436l-.831,4.987,4.6-2.508A.5.5,0,0,1,10,15Z" transform="translate(-1 -2)"/>
</svg>
