<svg xmlns="http://www.w3.org/2000/svg" width="22.255" height="23.4" viewBox="0 0 22.255 23.4">
  <g id="_0287-user" data-name="0287-user" transform="translate(0.25 0.25)">
    <path id="Path_65" data-name="Path 65" d="M10.3,12.6a6.3,6.3,0,1,1,6.3-6.3A6.3,6.3,0,0,1,10.3,12.6Zm0-11.45A5.153,5.153,0,1,0,15.45,6.3,5.159,5.159,0,0,0,10.3,1.145Z" transform="translate(0.58 0)" fill="#fff" stroke="#fff" stroke-width="0.5"/>
    <path id="Path_66" data-name="Path 66" d="M20.038,21.16H1.718A1.72,1.72,0,0,1,0,19.443a6.838,6.838,0,0,1,1.4-3.779,8.162,8.162,0,0,1,3.285-2.541A15.28,15.28,0,0,1,10.878,12a15.28,15.28,0,0,1,6.19,1.123,8.172,8.172,0,0,1,3.285,2.541,6.838,6.838,0,0,1,1.4,3.779A1.72,1.72,0,0,1,20.038,21.16Zm-9.16-8.015c-3.993,0-6.939,1.091-8.52,3.156a5.817,5.817,0,0,0-1.213,3.144.572.572,0,0,0,.573.57h18.32a.573.573,0,0,0,.573-.573A5.8,5.8,0,0,0,19.4,16.3C17.815,14.236,14.869,13.145,10.878,13.145Z" transform="translate(0 1.74)" fill="#fff" stroke="#fff" stroke-width="0.5"/>
  </g>
</svg>
