<svg xmlns="http://www.w3.org/2000/svg" width="21.615" height="23.128" viewBox="0 0 21.615 23.128">
  <g id="_0334-cart" data-name="0334-cart" transform="translate(-0.75 -1.75)">
    <path id="Path_58" data-name="Path 58" d="M8.506,21.012a2.506,2.506,0,1,1,2.506-2.506A2.509,2.509,0,0,1,8.506,21.012Zm0-3.759a1.253,1.253,0,1,0,1.253,1.253A1.255,1.255,0,0,0,8.506,17.253Z" transform="translate(1.265 3.616)" fill="#fff" stroke="#fff" stroke-width="0.5"/>
    <path id="Path_59" data-name="Path 59" d="M15.506,21.012a2.506,2.506,0,1,1,2.506-2.506A2.509,2.509,0,0,1,15.506,21.012Zm0-3.759a1.253,1.253,0,1,0,1.253,1.253A1.255,1.255,0,0,0,15.506,17.253Z" transform="translate(3.036 3.616)" fill="#fff" stroke="#fff" stroke-width="0.5"/>
    <path id="Path_60" data-name="Path 60" d="M21.724,5.105a1.69,1.69,0,0,0-1.3-.588H5.081l-.124-.75A2.155,2.155,0,0,0,2.88,2H1.627a.629.629,0,0,0,0,1.259H2.88a.908.908,0,0,1,.841.716L5.814,16.6a2.155,2.155,0,0,0,2.077,1.767h12.53a.629.629,0,0,0,0-1.259H7.892a.908.908,0,0,1-.841-.716l-.309-1.863,12.486-1.091a2.335,2.335,0,0,0,2.019-1.874l.841-5.069A1.71,1.71,0,0,0,21.725,5.1ZM20.85,6.285l-.841,5.069a1.091,1.091,0,0,1-.891.827l-12.584,1.1-1.245-7.5H20.42a.437.437,0,0,1,.346.142.449.449,0,0,1,.083.366Z" fill="#fff" stroke="#fff" stroke-width="0.5"/>
  </g>
</svg>
