<svg xmlns="http://www.w3.org/2000/svg" width="18.99" height="15.586" viewBox="0 0 18.99 15.586">
  <g id="_0343-tags" data-name="0343-tags" transform="translate(-0.26 -2.75)">
    <path id="Path_93" data-name="Path 93" d="M15.5,8A1.5,1.5,0,1,1,17,6.5,1.5,1.5,0,0,1,15.5,8Zm0-2a.5.5,0,1,0,.5.5A.5.5,0,0,0,15.5,6Z" stroke="#000" stroke-width="0.5"/>
    <path id="Path_94" data-name="Path 94" d="M17.5,3H14a3.248,3.248,0,0,0-2.061.854L4.353,11.44a1.5,1.5,0,0,0,0,2.122l2.6,2.6-1.1.632a.5.5,0,0,1-.379.049.492.492,0,0,1-.3-.232l-3.6-6.229A.5.5,0,0,1,1.764,9.7L9.75,5.09a.5.5,0,0,0-.5-.866L1.264,8.835a1.5,1.5,0,0,0-.549,2.049l3.6,6.229a1.49,1.49,0,0,0,.911.7,1.509,1.509,0,0,0,.392.052,1.489,1.489,0,0,0,.746-.2L7.687,16.9l.752.752a1.5,1.5,0,0,0,2.122,0l7.586-7.586A3.244,3.244,0,0,0,19,8V4.5A1.5,1.5,0,0,0,17.5,3ZM18,8a2.312,2.312,0,0,1-.561,1.354L9.853,16.94a.5.5,0,0,1-.708,0L5.059,12.854a.494.494,0,0,1-.145-.353.5.5,0,0,1,.145-.354l7.586-7.586A2.315,2.315,0,0,1,14,4h3.5a.5.5,0,0,1,.5.5V8Z" stroke="#000" stroke-width="0.5"/>
  </g>
</svg>
