<svg xmlns="http://www.w3.org/2000/svg" width="20.5" height="13.5" viewBox="0 0 20.5 13.5">
  <path id="_0600-truck" data-name="0600-truck" d="M19.794,13.421l0-.021a0,0,0,0,0,0,0l-.4-2a0,0,0,0,0,0,0l-.2-1.015A1.77,1.77,0,0,0,17.5,9h-4a1.509,1.509,0,0,0-.5.086V8.5A1.5,1.5,0,0,0,11.5,7H1.5A1.5,1.5,0,0,0,0,8.5v8A1.5,1.5,0,0,0,1.5,18H3a2,2,0,0,0,4,0h5.086A1.5,1.5,0,0,0,13.5,19h.769a2,2,0,0,0,3.462,0H18.5A1.5,1.5,0,0,0,20,17.5v-2a12.725,12.725,0,0,0-.206-2.079ZM18.69,13H16V12h2.49ZM5,19a1,1,0,1,1,1-1A1,1,0,0,1,5,19Zm1.731-2a2,2,0,0,0-3.462,0H1.5a.5.5,0,0,1-.5-.5v-8A.5.5,0,0,1,1.5,8h10a.5.5,0,0,1,.5.5V17ZM16,19a1,1,0,1,1,1-1A1,1,0,0,1,16,19Zm2.5-1H18a2,2,0,0,0-4,0h-.5a.5.5,0,0,1-.5-.5v-7a.5.5,0,0,1,.5-.5h4a.772.772,0,0,1,.706.579L18.29,11H15.5a.5.5,0,0,0-.5.5v2a.5.5,0,0,0,.5.5h3.378c.045.313.082.675.1,1H18.5a.5.5,0,1,0,0,1H19v1.5a.5.5,0,0,1-.5.5Z" transform="translate(0.25 -6.749)" stroke="#000" stroke-width="0.5"/>
</svg>
