<?xml version="1.0" encoding="utf-8"?>
<!-- Generator: Adobe Illustrator 24.2.3, SVG Export Plug-In . SVG Version: 6.00 Build 0)  -->
<svg version="1.1" id="Layer_1" xmlns="http://www.w3.org/2000/svg" xmlns:xlink="http://www.w3.org/1999/xlink" x="0px" y="0px"
	 viewBox="0 0 306.2 101.8" style="enable-background:new 0 0 306.2 101.8;" xml:space="preserve">
<style type="text/css">
	.st0{fill:#000000;}
	.st1{enable-background:new    ;}
</style>
<g id="Group_235" transform="translate(-17.485 -24)">
	<path id="Path_1" class="st0" d="M76.6,70.2c0.2-0.5,0.3-1.1,0.3-1.6c-0.3-1.6-2.4-2.9-4.9-2.2c-0.8,0.2-1.6,0.6-2.1,1.3
		c-0.3,0.3-0.5,0.7-0.7,1s-0.4,0.6-0.7,0.8c-0.6,0.5-1.3,0.9-1.9,1.4c-0.4,0.3-0.9,0.5-1.3,0.8c-0.6,0.4-1.2,0.7-1.8,1
		c-1,0.5-2,1-3,1.4c-3.2,1.5-6.6,2.5-10.1,3c-0.9,0.1-1.9,0.3-2.8,0.3c-1.4,0.1-2.7,0.2-4.1,0.1c-0.5,0-1.1-0.1-1.6-0.1
		c-1.4-0.1-2.9-0.3-4.3-0.6c-0.8-0.1-1.5-0.3-2.2-0.5c-1.4-0.4-2.7-1-4-1.7c-1.8-1-3.3-2.5-4.4-4.2c-1-1.6-1.5-3.4-1.7-5.2
		c-0.1-1-0.1-2-0.1-3c0.1-1.3,0.3-2.5,0.7-3.8c1-3.5,2.7-6.7,4.9-9.5c3.1-3.8,7-6.9,11.4-9.1c2.7-1.4,5.5-2.5,8.4-3.5
		c1.6-0.6,3.3-1,5-1.4c1-0.2,2.1-0.4,3.2-0.6c1.1-0.1,2.2-0.2,3.2-0.2c1.9-0.1,3.8,0,5.7,0.2c1.1,0.1,2.2,0.4,3.3,0.7
		c1,0.4,2,0.8,3,1.2c0.3,0.2,0.7,0.3,1,0.6c0.5,0.4,1.1,0.8,1.6,1.2c0.6,0.5,1.1,1.1,1.6,1.7c0.2,0.3,0.3,0.7,0.4,1.1
		c0,0.5,0.1,0.9,0.2,1.4c0.1,0.8,0.3,1.6,0.4,2.3c0.1,0.6,0.4,1.2,0.9,1.7c0.8,0.8,2,1.2,3.2,1.1c1.7,0,3.4-1.1,3.6-2.5
		c0.1-0.3,0.1-0.7,0.1-1c-0.1-0.8-0.1-1.6-0.2-2.5c-0.1-0.7-0.2-1.3-0.4-2c-0.1-0.3-0.2-0.6-0.4-0.8c-0.2-0.3-0.4-0.6-0.6-1
		s-0.5-0.8-0.8-1.2c-0.8-1-1.7-1.9-2.7-2.6c-0.3-0.3-0.7-0.5-1-0.8c-1-0.7-2-1.3-3.2-1.8c-1-0.4-2-0.8-3-1.2
		c-0.7-0.3-1.5-0.5-2.3-0.7c-2.4-0.6-4.9-0.9-7.4-0.9c-1.6,0-3.1,0-4.7,0.1c-1.4,0.1-2.8,0.2-4.2,0.5c-1.8,0.3-3.6,0.7-5.4,1.2
		c-4.1,1.2-8,2.7-11.8,4.6c-1.7,0.8-3.3,1.7-4.9,2.7c-2.5,1.6-4.8,3.5-6.9,5.6c-5.1,5-8.6,11.4-9.4,17.7c-0.1,1-0.2,1.9-0.2,2.8
		c0,1.8,0.2,3.6,0.7,5.4c0.5,1.7,1.2,3.2,2.1,4.7c1.7,2.5,3.9,4.5,6.5,5.9c2.2,1.2,4.5,2.1,7,2.7c1.7,0.4,3.5,0.7,5.3,1
		c1.4,0.2,2.9,0.3,4.3,0.3c2.1,0,4.3-0.1,6.4-0.4c1.3-0.2,2.6-0.4,3.8-0.6c2.9-0.6,5.8-1.4,8.6-2.5c0.1,0,0.2-0.1,0.3-0.1
		c0,0,0,0,0.1,0l0,0c-0.1,0.2-0.2,0.3-0.3,0.5c-4.5,7.6-9,15.3-13.4,22.9c-2.1,3.6-4.3,7.2-6.3,10.9c-0.1,0.2-0.2,0.3-0.3,0.4
		c-0.3,0.3-0.6,0.6-0.9,0.9c-1.2,1.2-2.4,2.5-3.5,3.8c-0.4,0.4-0.7,0.9-1,1.3c-0.2,0.3-0.4,0.7-0.6,1c-0.4,1.2,0,2.5,1.1,3.1
		c0.1,0.1,0.2,0.1,0.3,0.2c0.6,0.4,1.3,0.6,1.9,0.8c0.3,0.1,0.6,0.1,0.8,0.1c1,0.1,2.1-0.1,3-0.5c0.8-0.3,1.5-0.8,2-1.6
		c0.2-0.3,0.3-0.5,0.5-0.8c0.7-1.3,1.4-2.7,2.2-4c0.7-1.4,1.5-2.7,2.2-4.1c5-8.5,10-17,14.9-25.5c3.3-5.6,6.6-11.2,9.8-16.7
		c0.2-0.4,0.4-0.7,0.7-1C76.2,71.1,76.4,70.7,76.6,70.2z"/>
	<g id="Group_1" transform="translate(75.537 24)">
		<path id="Path_2" class="st0" d="M212.9,14.1c-0.5-2-5.2-4.9-12.7-5.4l2,4.4c3.5,0.3,4.7,1.5,4.8,2c0.2,0.7-1.5,3-6.4,5.1
			c-2.9,1.2-5.9,2.1-9,2.6c0-5.1-2.5-11.6-5.2-18.2c-0.4-1-0.8-1.9-1.1-2.6c-0.5-1.1-1.5-1.9-2.7-2c-1.5-0.2-3,0.4-4,1.5
			c-0.6,0.6-1.1,1.3-1.6,2.1c-0.1,0.2-0.2,0.4-0.4,0.6c-1.2,1.9-3.3,5.6-5.4,9.6c-0.5,1-1.1,2-1.7,3.1c-1.6-0.6-3.3-0.2-4.4,1.1
			c-0.1,0.1-1.7,2.2,0,3.7l0.2,0.1c0.2,0.2,0.4,0.3,0.6,0.4c0.1,0.2,0.2,0.4,0.2,0.6c-0.4,0.8-0.9,1.5-1.5,2.2
			c-3.8,3.5-9.1,6.9-12.5,6.8l0,0c-1.3-0.1-2.6-0.8-3.3-2c2.2-1.6,4.3-3.4,6.2-5.3c0.1-0.1,11.7-11.5,8.6-17.5c-0.9-1.8-3.1-3-6-3.2
			c-9-0.8-14.1,9-14.7,10.1c-2.3,4.6-2.2,10.6-1.1,14.6c-1.8,1.2-3.9,2.5-6.3,4c-4,2.4-6.7,3-7.4,3c-0.1-0.3-0.2-0.6-0.2-0.9
			c-0.2-3.1,0.7-6.5,1.4-9.2c0.1-0.2,0.1-0.4,0.2-0.7c2.9-2.6,5.4-5.5,6.3-9.5c0-0.1,0-0.2,0.1-0.3c0.5-1.2,0.2-2.6-0.8-3.5
			c-0.9-0.7-2.1-0.9-3.2-0.7c-3.4,0.5-5.1,3.5-6.4,6.8l-0.1,0.2c-0.6,1.6-1.2,3.3-1.5,5c-0.5,0.5-1.1,0.9-1.7,1.4
			c-0.5,0.5-1.1,0.9-1.7,1.4c-2.2,1.9-4.5,3.7-6.7,5.6l-0.9,0.8c0.5-0.9,0.9-1.6,1.2-2.1c1.9-3.6,4.8-10.4,3.6-14.5
			c-0.4-1.4-1.8-2.3-3.2-2.2c-1.1,0-2.1,0.4-2.8,1.2c-0.5-0.5-1.1-1-1.8-1.3c-1.5-0.7-3.3-0.8-4.9-0.2c-5.1,2.3-9.7,5.6-13.4,9.8
			c-4.3,5.1-5.8,10-5.3,13.8c-1.1,0.9-2.3,1.9-3.5,2.8c-1.9,1.5-4,2.8-6.3,3.7c0-0.3,0-0.6,0-0.9c0.4-2,6.7-17,7.5-18.4
			c0.2-0.4,0.3-0.8,0.3-1.2l0,0c-0.1-0.4-0.3-0.8-0.6-1.2c-0.6-0.6-1.2-1.3-1.8-1.9c-0.5-0.5-1.1-0.8-1.7-0.9
			c-0.7-0.1-1.4-0.1-2,0.1c-0.9,0.3-1.8,0.9-2.4,1.6c0,0.1-0.1,0.1-0.1,0.2c-0.3,0.3-0.7,0.7-1,1c-0.9,0.8-1.8,1.6-2.7,2.3
			c-0.3,0.2-0.5,0.3-0.7,0.5c0.4-1.4,0.6-2.9,0.5-4.3c0-0.9-0.2-3.5-3.2-3.8c-3.1-0.2-4.1,2.6-4.5,3.5c-0.6,1.6-0.8,3.2-0.8,4.9
			c0,0.8,0.2,1.5,0.5,2.2c-0.5,0.7-1,1.4-1.6,2c-0.8,0.8-1.8,1.4-2.8,1.8c-0.1-0.1-0.2-0.3-0.3-0.4c-6.3-7.6-11.5-6.1-12.5-5.7
			c-0.8,0.3-1.5,0.7-2.1,1.2c-0.7,0.1-1.3,0.2-1.9,0.6c-1.9,1.1-5.1,5.1-7.1,9c-1.3,2.4-2.1,5.1-2.3,7.9c-4,5-8.6,8.3-13.8,9.8
			c-1.4,0.4-4.7,1.2-6.3,0c-0.7-0.6-1.2-1.5-1.4-2.5c2.1-1,4.4-2.2,6.7-3.5c0.3-0.1,0.5-0.3,0.8-0.5c2-1.2,3.9-2.5,5.8-4
			c2.8-2.3,5.7-4.9,7.2-8c1.6-3.1,1.6-7.2-1.8-9.2c-3.3-1.8-8.1-1.3-13.2,1.5c-4.7,2.6-7.6,7.2-9.1,10.5c-1.3,2.7-2.1,5.6-2.5,8.6
			v0.6c0,0.3,0,0.6,0,0.9c-1.3,0.6-2.7,1.2-3.9,1.7c-1.2,0.4-1.8,1.6-1.5,2.8c0.1,0.2,0.1,0.4,0.2,0.5c1,1.2,2.6,1.7,4.1,1.1
			c0.5-0.2,1.1-0.4,1.8-0.7C6.8,54,7.7,55.2,8.8,56c2.8,2.2,7.3,2.5,12.6,1c5.3-1.6,10.1-4.5,13.9-8.5c4.6,5,11.6,6.2,17.9,3
			c3.8-1.9,6.8-5.2,8.2-9.3c0.9-2.5,0.9-5.2,0.1-7.7c1.9-0.7,3.7-1.8,5.2-3.3c0.6-0.6,1.1-1.2,1.5-1.8c3.4,0.3,6.3-1.8,7.5-2.7
			c0.2-0.2,0.4-0.3,0.7-0.5c-2.3,5.4-5.9,13.8-6,15.4c-0.2,2.9,0.8,4.8,3.1,5.5c4.7,1.6,11.2-3.3,13.3-4.9c0.5-0.4,1-0.7,1.5-1.1
			c0.7,0.9,1.6,1.6,2.6,2.1c2.3,1.1,4.8,1.5,7.3,1c-2.2,2-4.3,4.1-6.2,6.4c-0.2,0.2-0.4,0.5-0.7,0.8c-2.8,3.2-6.7,7.5-5.1,11.9
			c1.2,3.1,4.7,5.2,8.7,5.4c0.7,0,1.5,0,2.2-0.1c5.4-0.7,6.9-4.4,8-6.8l0.1-0.2c1.9-4.6,3.3-9.4,4.3-14.2l0.1-0.6
			c0.5-2.3,1-4.6,1.5-7c2.3-1.9,4.6-3.8,6.9-5.7c1.3-1,2.5-2.1,3.8-3.2c-0.2,1.3-0.2,2.7-0.1,4.1c0.1,2.2,1.5,4.1,3.6,4.7
			c4.1,1.3,9.7-1.2,13.7-3.6c1.8-1.1,3.5-2.1,5-3.1c1.9,2,4.5,3.3,7.2,3.4c7.3,0.4,14.9-5.8,17.8-8.5l0.1-0.1
			c1.8,2.1,4.2,3.6,6.8,4.5c2.7,0.8,7,1.2,11.9-2c1-0.6,1.9-1.5,2.4-2.6c4.4-0.5,8.8-1.6,12.9-3.3C210,21.3,213.7,17.5,212.9,14.1z
			 M20.5,30.3c1.6-1,3.4-1.6,5.3-1.7c0.3,0,0.5,0.1,0.8,0.2c0.7,0.4,0.7,2.3-0.1,3.9c-1.2,2.4-3.6,4.5-6,6.5
			c-1.8,1.4-3.6,2.7-5.6,3.8c-0.6,0.3-1.9,0.8-3.3,1.5C12.3,41.3,14.9,33.4,20.5,30.3z M51.6,30.2c-0.7-0.4-1.3-0.8-1.9-1.3
			C50.4,29.2,51,29.6,51.6,30.2L51.6,30.2z M50,47.7c-3.6,1.8-7.1,1.1-9.9-2.1c-0.4-0.5-0.7-1.1-0.8-1.7c2.6-3.5,4.7-7.3,6.5-11.3
			l6,2.7c1.3,0.3,2.6,0.4,4,0.4C57.4,40.8,53.9,45.7,50,47.7L50,47.7z M96.6,25c2.7-3.1,6-5.7,9.7-7.6c-0.8,0.9-1.7,1.7-2.6,2.5
			c-0.5,0.5-1,0.9-1.4,1.3c-1.9,2-3.9,4-5.9,5.9c-1,1-2.1,2-3.2,3.1C94.2,28.3,95.3,26.5,96.6,25L96.6,25z M103.8,46.7
			c-1,4.6-2.3,9.2-4.1,13.6l-0.1,0.2c-1.1,2.5-1.7,3.3-3.1,3.5c-1.7,0.3-3.5-0.6-4.2-2.2c-0.9-2.3,2.1-5.5,4.2-7.9
			c0.2-0.3,0.5-0.5,0.7-0.8c2.1-2.4,4.3-4.6,6.7-6.8L103.8,46.7z M107,30.7c-1.1,2-2.4,3.9-3.9,5.6l-0.3,0.1l-0.4,0.4
			c-2.8,2.7-5.7,3.7-7.7,2.7c-0.8-0.4-1.4-1.1-1.8-1.9c3-2.6,5.7-5.2,8.4-7.7c2-2,4.1-4,6-6c0.2-0.3,0.7-0.6,1.1-1l0.5-0.4
			C108.1,25.2,107.5,27.9,107,30.7z M148.6,15.4c1.5-3.1,5.1-7.2,8.1-7.1h0.1c1,0.1,1.1,0.3,1.2,0.4c1.1,2.1-3.3,8.8-7.7,12.9
			c-1,1-2.1,1.9-3.1,2.8C146.8,21.4,147.3,18.2,148.6,15.4z M178.5,27.9c-0.8-0.3-1.6-0.7-2.3-1.2c2,0.5,4,0.8,6,1
			C181.1,28.2,179.8,28.3,178.5,27.9z M185.5,23.2c-4,0-8.1-0.8-11.8-2.4c0.9-1.5,1.8-3.3,3-5.4c1.6-2.9,3.2-5.9,4.4-7.9
			c1.6,3.6,2.8,7.3,3.8,11C185.3,20.1,185.5,21.6,185.5,23.2L185.5,23.2z"/>
	</g>
	
		<ellipse id="Ellipse_1" transform="matrix(0.8971 -0.4418 0.4418 0.8971 8.3862 96.036)" class="st0" cx="210.4" cy="30" rx="5.1" ry="2.4"/>
	<g class="st1">
		<path class="st0" d="M126.3,103l-0.3-0.2c0.1-0.2,0.1-0.3,0.1-0.4c0-0.2-0.2-0.3-0.4-0.5c-1.1-0.7-2.6-1.1-4-1.1
			c-3.2,0-5.5,2.1-5.5,5c0,2.9,2.3,5.1,5.5,5.1c1.5,0,3-0.5,4.1-1.4c0.5-0.4,0.7-0.6,0.7-0.8c0-0.1-0.1-0.4-0.2-0.5l0.2-0.2l1.7,2.2
			l-0.2,0.2c-0.3-0.2-0.4-0.3-0.6-0.3c-0.1,0-0.1,0-0.3,0.1c-1.7,1.4-3.4,2-5.6,2c-4,0-6.9-2.6-6.9-6.3c0-3.7,2.9-6.2,7.2-6.2
			c1.8,0,3.3,0.4,4.9,1.3c0.2,0.1,0.2,0.1,0.3,0.1c0.2,0,0.3-0.1,0.5-0.4l0.3,0.2L126.3,103z"/>
		<path class="st0" d="M131.1,110.7h7.4c0.6,0,0.8-0.1,0.9-0.7h0.3v2.5h-0.3c-0.1-0.5-0.3-0.7-0.9-0.7h-9.7v-0.3
			c0.5-0.2,0.7-0.3,0.7-0.9V101c0-0.6-0.1-0.8-0.7-0.9v-0.3h9.6c0.6,0,0.8-0.1,0.9-0.7h0.3v2.5h-0.3c-0.2-0.5-0.3-0.7-0.9-0.7h-7.4
			v4.1h4.7c0.6,0,0.8-0.1,0.9-0.7h0.3v2.5h-0.3c-0.2-0.5-0.3-0.7-0.9-0.7h-4.7V110.7z"/>
		<path class="st0" d="M143.2,110.7c0,0.6,0.1,0.8,0.7,0.9v0.3H141v-0.3c0.5-0.2,0.7-0.3,0.7-0.9V101c0-0.6-0.1-0.8-0.7-0.9v-0.3
			h7.1c1.7,0,2.6,0.2,3.3,0.7c0.8,0.6,1.3,1.5,1.3,2.6c0,1.8-1.2,2.9-3.4,3.1l3,4.8c0.2,0.4,0.4,0.4,0.9,0.5v0.3h-3v-0.3
			c0.3-0.1,0.4-0.1,0.4-0.3c0-0.1-0.1-0.3-0.2-0.5l-2.8-4.4h-4.4V110.7z M147.8,105.2c1.5,0,2.1-0.1,2.6-0.4
			c0.5-0.3,0.8-0.9,0.8-1.7c0-0.7-0.3-1.3-0.8-1.7c-0.5-0.4-1.2-0.5-2.5-0.5h-4.8v4.2H147.8z"/>
		<path class="st0" d="M157,108.5l-0.9,2c-0.1,0.2-0.2,0.4-0.2,0.6c0,0.2,0.2,0.4,0.6,0.5v0.3h-3v-0.3c0.6-0.1,0.9-0.4,1.3-1.3
			l4-8.7c0.2-0.5,0.3-0.8,0.3-1c0-0.3-0.1-0.4-0.6-0.5v-0.3h3.5v0.3c-0.4,0.1-0.5,0.2-0.5,0.5c0,0.2,0.1,0.4,0.4,1.1l3.8,8.3
			c0.5,1.2,0.8,1.5,1.4,1.5v0.3h-3.1v-0.3c0.4-0.1,0.5-0.2,0.5-0.4c0-0.1,0-0.2-0.3-0.7l-0.9-2H157z M160.1,101.4l-2.7,5.9h5.3
			L160.1,101.4z"/>
		<path class="st0" d="M169.3,101.7v8.9c0,0.6,0.1,0.8,0.7,0.9v0.3h-2.6v-0.3c0.5-0.2,0.7-0.3,0.7-0.9V101c0-0.6-0.1-0.8-0.7-0.9
			v-0.3h3.7v0.3c-0.4,0.1-0.6,0.3-0.6,0.5c0,0.1,0,0.1,0.3,0.7l3.8,7.7l3.8-7.7c0.2-0.4,0.3-0.6,0.3-0.7c0-0.2-0.2-0.4-0.6-0.5v-0.3
			h3.7v0.3c-0.6,0.2-0.7,0.3-0.7,0.9v9.6c0,0.6,0.1,0.8,0.7,0.9v0.3h-2.9v-0.3c0.6-0.2,0.7-0.3,0.7-0.9v-8.9l-5.1,10.1L169.3,101.7z
			"/>
		<path class="st0" d="M186.3,111.9h-2.9v-0.3c0.5-0.2,0.7-0.3,0.7-0.9V101c0-0.6-0.1-0.8-0.7-0.9v-0.3h2.9v0.3
			c-0.5,0.2-0.7,0.3-0.7,0.9v9.6c0,0.6,0.1,0.8,0.7,0.9V111.9z"/>
		<path class="st0" d="M199.4,103l-0.3-0.2c0.1-0.2,0.1-0.3,0.1-0.4c0-0.2-0.2-0.3-0.4-0.5c-1.1-0.7-2.6-1.1-4-1.1
			c-3.2,0-5.5,2.1-5.5,5c0,2.9,2.3,5.1,5.5,5.1c1.5,0,3-0.5,4.1-1.4c0.5-0.4,0.7-0.6,0.7-0.8c0-0.1-0.1-0.4-0.2-0.5l0.2-0.2l1.7,2.2
			l-0.2,0.2c-0.3-0.2-0.4-0.3-0.5-0.3c-0.1,0-0.1,0-0.3,0.1c-1.7,1.4-3.4,2-5.6,2c-4,0-6.9-2.6-6.9-6.3c0-3.7,2.9-6.2,7.2-6.2
			c1.8,0,3.3,0.4,4.9,1.3c0.2,0.1,0.2,0.1,0.3,0.1c0.2,0,0.3-0.1,0.5-0.4l0.3,0.2L199.4,103z"/>
		<path class="st0" d="M221.4,105h-0.3c0-0.4-0.1-0.5-0.2-0.5c-0.6,0-1.5,1.1-2.7,3.3c0.4,1.1,0.8,1.6,1.4,2
			c0.4,0.3,0.9,0.5,1.2,0.5c0.3,0,0.3,0,0.4-0.6h0.3v2.2c-2.2,0-3.5-0.7-4.3-2.5c-1.1,1.9-2.8,2.8-5.2,2.8c-1.7,0-3-0.5-4-1.4
			c-0.9-0.8-1.4-2-1.4-3.1c0-1.3,0.6-2.5,1.7-3.3c0.6-0.4,1.1-0.7,2.1-1c-1.3-0.6-1.9-1.5-1.9-2.8c0-2.2,1.8-3.7,4.4-3.7
			c2.6,0,4.5,1.5,4.5,3.7c0,1.4-0.8,2.5-2.3,3c1.1,0.5,2,1.5,2.4,2.6c1-2.4,2.4-3.7,4-3.9V105z M208.3,107.4c0,1.9,1.6,3.2,3.8,3.2
			c1.1,0,2.2-0.4,3.1-1.2c0.6-0.6,1-1.2,1-1.8c0-0.7-0.5-1.7-1.2-2.3c-0.7-0.7-1.7-1.1-2.8-1.1C209.9,104.3,208.3,105.7,208.3,107.4
			z M210.1,100.6c0,1.4,1.2,2.3,3,2.3c1.6,0,2.7-0.9,2.7-2.2c0-1.5-1.2-2.4-2.9-2.4C211.1,98.2,210.1,99.1,210.1,100.6z"/>
		<path class="st0" d="M238.3,103l-0.3-0.2c0.1-0.2,0.1-0.3,0.1-0.4c0-0.2-0.2-0.3-0.4-0.5c-1.1-0.7-2.6-1.1-4-1.1
			c-3.2,0-5.5,2.1-5.5,5c0,2.9,2.3,5.1,5.5,5.1c1.5,0,3-0.5,4.1-1.4c0.5-0.4,0.7-0.6,0.7-0.8c0-0.1-0.1-0.4-0.2-0.5l0.2-0.2l1.7,2.2
			l-0.2,0.2c-0.3-0.2-0.4-0.3-0.6-0.3c-0.1,0-0.1,0-0.3,0.1c-1.7,1.4-3.4,2-5.6,2c-4,0-6.9-2.6-6.9-6.3c0-3.7,2.9-6.2,7.2-6.2
			c1.8,0,3.3,0.4,4.9,1.3c0.2,0.1,0.2,0.1,0.3,0.1c0.2,0,0.3-0.1,0.5-0.4l0.3,0.2L238.3,103z"/>
		<path class="st0" d="M250.4,110.7c0.6,0,0.8-0.1,0.9-0.7h0.3v2.5h-0.3c-0.2-0.5-0.3-0.7-0.9-0.7h-9.6v-0.3
			c0.5-0.2,0.7-0.3,0.7-0.9V101c0-0.6-0.1-0.8-0.7-0.9v-0.3h2.9v0.3c-0.6,0.2-0.7,0.3-0.7,0.9v9.7H250.4z"/>
		<path class="st0" d="M254.4,108.5l-0.9,2c-0.1,0.2-0.2,0.4-0.2,0.6c0,0.2,0.2,0.4,0.6,0.5v0.3h-3v-0.3c0.5-0.1,0.9-0.4,1.3-1.3
			l4-8.7c0.2-0.5,0.3-0.8,0.3-1c0-0.3-0.1-0.4-0.5-0.5v-0.3h3.5v0.3c-0.4,0.1-0.5,0.2-0.5,0.5c0,0.2,0.1,0.4,0.4,1.1l3.8,8.3
			c0.5,1.2,0.8,1.5,1.4,1.5v0.3h-3.1v-0.3c0.4-0.1,0.5-0.2,0.5-0.4c0-0.1,0-0.2-0.3-0.7l-0.9-2H254.4z M257.6,101.4l-2.7,5.9h5.3
			L257.6,101.4z"/>
		<path class="st0" d="M269.1,110.7c0,0.6,0.1,0.8,0.7,0.9v0.3h-2.9v-0.3c0.5-0.2,0.7-0.3,0.7-0.9v-4.1l-3.7-4.8
			c-0.9-1.1-1.2-1.5-1.8-1.6v-0.3h3.4v0.3c-0.3,0-0.5,0.2-0.5,0.4c0,0.2,0.1,0.4,0.3,0.7l3.2,4.2l2.9-4.2c0.2-0.3,0.3-0.5,0.3-0.7
			c0-0.2-0.2-0.4-0.5-0.4v-0.3h3.1v0.3c-0.6,0.2-0.9,0.5-2,1.9l-3.2,4.5V110.7z"/>
		<path class="st0" d="M290.5,103l-0.3-0.2c0.1-0.2,0.1-0.3,0.1-0.4c0-0.2-0.2-0.3-0.4-0.5c-1.1-0.7-2.6-1.1-4-1.1
			c-3.2,0-5.5,2.1-5.5,5c0,2.9,2.3,5.1,5.5,5.1c1.5,0,3-0.5,4.1-1.4c0.5-0.4,0.7-0.6,0.7-0.8c0-0.1-0.1-0.4-0.2-0.5l0.2-0.2l1.7,2.2
			l-0.2,0.2c-0.3-0.2-0.4-0.3-0.5-0.3c-0.1,0-0.1,0-0.3,0.1c-1.7,1.4-3.4,2-5.6,2c-4,0-6.9-2.6-6.9-6.3c0-3.7,2.9-6.2,7.2-6.2
			c1.8,0,3.3,0.4,4.9,1.3c0.2,0.1,0.2,0.1,0.3,0.1c0.2,0,0.3-0.1,0.5-0.4l0.3,0.2L290.5,103z"/>
		<path class="st0" d="M306.9,105.9c0,1.7-0.8,3.4-2.1,4.5c-1.3,1.1-3,1.7-5.2,1.7c-4.3,0-7.2-2.6-7.2-6.3c0-3.7,2.9-6.3,7.2-6.3
			C304,99.6,306.9,102.1,306.9,105.9z M294.1,105.8c0,2.9,2.4,5,5.7,5c3.2,0,5.6-2.1,5.6-5c0-3-2.3-5.1-5.7-5.1
			C296.4,100.8,294.1,102.9,294.1,105.8z"/>
		<path class="st0" d="M310.8,111c0,0.6-0.5,1.2-1.2,1.2c-0.7,0-1.2-0.5-1.2-1.2c0-0.6,0.5-1.2,1.2-1.2
			C310.3,109.8,310.8,110.3,310.8,111z"/>
	</g>
</g>
</svg>
