<?xml version="1.0" encoding="utf-8"?>
<!-- Generator: Adobe Illustrator 24.2.1, SVG Export Plug-In . SVG Version: 6.00 Build 0)  -->
<svg version="1.1" id="Layer_1" xmlns="http://www.w3.org/2000/svg" xmlns:xlink="http://www.w3.org/1999/xlink" x="0px" y="0px"
	 viewBox="0 0 100 100" style="enable-background:new 0 0 100 100;" xml:space="preserve">
<style type="text/css">
	.st0{fill:#FFFFFF;}
</style>
<g id="Group_235" transform="translate(-17.485 -24)">
	<path id="Path_1" class="st0" d="M92.5,67c0.2-0.5,0.3-1.1,0.3-1.6c-0.3-1.6-2.5-3-5-2.3c-0.8,0.2-1.6,0.6-2.2,1.3
		c-0.3,0.3-0.5,0.7-0.7,1c-0.2,0.3-0.4,0.6-0.7,0.8c-0.6,0.5-1.3,0.9-1.9,1.4c-0.4,0.3-0.9,0.5-1.3,0.8c-0.6,0.4-1.2,0.7-1.8,1
		c-1,0.5-2.1,1-3.1,1.4c-3.3,1.5-6.8,2.6-10.4,3.1c-0.9,0.1-1.9,0.3-2.9,0.3c-1.4,0.1-2.8,0.2-4.2,0.1c-0.5,0-1.1-0.1-1.6-0.1
		c-1.4-0.1-3-0.3-4.4-0.6c-0.8-0.1-1.5-0.3-2.3-0.5c-1.4-0.4-2.8-1-4.1-1.7c-1.8-1-3.4-2.6-4.5-4.3c-1-1.6-1.5-3.5-1.7-5.3
		c-0.1-1-0.1-2.1-0.1-3.1c0.1-1.3,0.3-2.6,0.7-3.9c1-3.6,2.8-6.9,5-9.7c3.2-3.9,7.2-7.1,11.7-9.3c2.8-1.4,5.6-2.6,8.6-3.6
		c1.6-0.6,3.4-1,5.1-1.4c1-0.2,2.2-0.4,3.3-0.6c1.1-0.1,2.3-0.2,3.3-0.2c1.9-0.1,3.9,0,5.8,0.2c1.1,0.1,2.3,0.4,3.4,0.7
		c1,0.4,2.1,0.8,3.1,1.2c0.3,0.2,0.7,0.3,1,0.6c0.5,0.4,1.1,0.8,1.6,1.2c0.6,0.5,1.1,1.1,1.6,1.7c0.2,0.3,0.3,0.7,0.4,1.1
		c0,0.5,0.1,0.9,0.2,1.4c0.1,0.8,0.3,1.6,0.4,2.4c0.1,0.6,0.4,1.2,0.9,1.7c0.8,0.8,2.1,1.2,3.3,1.1c1.7,0,3.5-1.1,3.7-2.6
		c0.1-0.3,0.1-0.7,0.1-1c-0.1-0.8-0.1-1.6-0.2-2.6c-0.1-0.7-0.2-1.3-0.4-2.1c-0.1-0.3-0.2-0.6-0.4-0.8c-0.2-0.3-0.4-0.6-0.6-1
		s-0.5-0.8-0.8-1.2c-0.8-1-1.7-1.9-2.8-2.7c-0.3-0.3-0.7-0.5-1-0.8c-1-0.7-2.1-1.3-3.3-1.8c-1-0.4-2.1-0.8-3.1-1.2
		c-0.7-0.3-1.5-0.5-2.4-0.7c-2.5-0.6-5-0.9-7.6-0.9c-1.6,0-3.2,0-4.8,0.1c-1.4,0.1-2.9,0.2-4.3,0.5c-1.8,0.3-3.7,0.7-5.5,1.2
		c-4.2,1.2-8.2,2.8-12.1,4.7c-1.7,0.8-3.4,1.7-5,2.8c-2.6,1.6-4.9,3.6-7.1,5.7c-5.3,5.1-8.8,11.7-9.6,18.1c-0.1,1-0.2,1.9-0.2,2.9
		c0,1.8,0.2,3.7,0.7,5.5c0.5,1.7,1.2,3.3,2.2,4.8c1.7,2.6,4,4.6,6.7,6c2.3,1.2,4.6,2.2,7.2,2.8c1.7,0.4,3.6,0.7,5.4,1
		c1.4,0.2,3,0.3,4.4,0.3c2.2,0,4.4-0.1,6.6-0.4c1.3-0.2,2.7-0.4,3.9-0.6c3-0.6,5.9-1.4,8.8-2.6c0.1,0,0.2-0.1,0.3-0.1c0,0,0,0,0.1,0
		l0,0c-0.1,0.2-0.2,0.3-0.3,0.5c-4.6,7.8-9.2,15.7-13.7,23.5c-2.2,3.7-4.4,7.4-6.5,11.2c-0.1,0.2-0.2,0.3-0.3,0.4
		c-0.3,0.3-0.6,0.6-0.9,0.9c-1.2,1.2-2.5,2.6-3.6,3.9c-0.4,0.4-0.7,0.9-1,1.3c-0.2,0.3-0.4,0.7-0.6,1c-0.4,1.2,0,2.6,1.1,3.2
		c0.1,0.1,0.2,0.1,0.3,0.2c0.6,0.4,1.3,0.6,1.9,0.8c0.3,0.1,0.6,0.1,0.8,0.1c1,0.1,2.2-0.1,3.1-0.5c0.8-0.3,1.5-0.8,2.1-1.6
		c0.2-0.3,0.3-0.5,0.5-0.8c0.7-1.3,1.4-2.8,2.3-4.1c0.7-1.4,1.5-2.8,2.3-4.2c5.1-8.7,10.3-17.4,15.3-26.1c3.4-5.7,6.8-11.5,10-17.1
		c0.2-0.4,0.4-0.7,0.7-1C91.9,67.9,92.2,67.5,92.5,67z"/>
</g>
</svg>
